<svg version="1.1" id="Layer_1" xmlns="http://www.w3.org/2000/svg" xmlns:xlink="http://www.w3.org/1999/xlink" x="0px" y="0px"
	 width="100%" viewBox="0 0 800 800" enable-background="new 0 0 800 800" xml:space="preserve">
<path fill="#FFFEFE" opacity="1.000000" stroke="none" 
	d="
M420.000000,801.000000 
	C280.000000,801.000000 140.500000,801.000000 1.000000,801.000000 
	C1.000000,534.333313 1.000000,267.666656 1.000000,1.000000 
	C267.666656,1.000000 534.333313,1.000000 801.000000,1.000000 
	C801.000000,267.666656 801.000000,534.333313 801.000000,801.000000 
	C674.166687,801.000000 547.333313,801.000000 420.000000,801.000000 
M615.329407,392.015350 
	C614.389282,379.761749 613.430481,367.509583 612.513977,355.254211 
	C611.439697,340.890289 609.838257,326.537628 609.482178,312.154877 
	C608.958496,291.006653 608.934204,269.826630 609.436218,248.677704 
	C609.988525,225.407990 591.138550,205.609802 566.462708,205.528412 
	C460.825439,205.179947 355.186035,205.301300 249.548523,205.616211 
	C242.818451,205.636276 235.514801,207.593903 229.484619,210.641785 
	C213.125092,218.910461 205.768570,233.410583 205.431381,251.311890 
	C204.904678,279.275513 204.955658,307.249695 204.558197,335.216492 
	C204.504654,338.984802 205.865601,341.461853 208.591782,343.690796 
	C218.989105,352.191833 229.020660,361.175507 239.761917,369.213043 
	C260.586700,384.796021 281.474030,400.337402 302.951660,414.992950 
	C320.870117,427.219818 339.576843,438.307526 358.109497,449.612823 
	C370.836670,457.376648 383.788055,464.783386 396.782928,472.094299 
	C405.447876,476.969208 414.311035,481.502472 423.182037,485.998077 
	C439.615784,494.326324 455.965820,502.844269 472.639526,510.667664 
	C488.802002,518.251099 505.261566,525.217102 521.715515,532.158325 
	C533.638062,537.187866 545.601318,542.213806 557.841187,546.374329 
	C573.024048,551.535095 588.428650,556.100159 603.892883,560.358215 
	C616.181213,563.741760 628.667236,566.445496 641.138794,569.107361 
	C646.253174,570.198914 648.452942,567.058594 646.832031,561.917847 
	C645.986023,559.234741 645.147034,556.534668 644.556519,553.788208 
	C641.071350,537.577087 637.526184,521.377014 634.262024,505.120850 
	C631.070312,489.225891 627.900330,473.316498 625.244934,457.326355 
	C621.686829,435.899811 618.633057,414.389526 615.329407,392.015350 
M384.499969,667.345032 
	C459.815460,667.351196 535.130981,667.353149 610.446472,667.368042 
	C621.525208,667.370239 632.559143,666.711792 641.744141,659.668152 
	C647.533325,655.228699 652.831787,653.199707 660.750549,654.170044 
	C677.701233,656.247131 694.968140,657.032410 711.899109,653.232605 
	C724.956055,650.302185 735.984985,644.316162 740.340332,630.418945 
	C743.346741,620.825989 740.794373,611.505432 737.495789,602.665955 
	C731.455994,586.480713 721.734436,572.368042 710.751892,559.141541 
	C709.570496,557.718811 707.516724,557.020508 705.867615,555.986145 
	C705.583008,558.161316 705.149109,560.332092 705.085999,562.513672 
	C705.060059,563.411072 706.181091,564.330017 706.185181,565.241821 
	C706.210632,570.926453 707.404114,577.050293 705.711914,582.209045 
	C701.735291,594.332520 690.513123,597.973083 679.563904,599.030334 
	C662.024719,600.723877 644.323242,599.690186 627.006714,596.010803 
	C615.012695,593.462280 603.015625,590.588440 591.378967,586.766663 
	C565.362793,578.222351 539.333130,569.616638 513.767395,559.837463 
	C495.192352,552.732300 477.141022,544.140442 459.234894,535.432678 
	C434.643921,523.473938 410.096527,511.353821 386.113861,498.236206 
	C362.561981,485.354248 339.489380,471.541901 316.671692,457.387817 
	C296.110229,444.633331 275.731659,431.485596 256.088806,417.374908 
	C234.161057,401.622803 212.283081,385.583313 192.004120,367.818848 
	C173.749252,351.827576 157.215439,333.762604 140.841187,315.775940 
	C131.573486,305.595642 124.349876,293.522980 120.470970,280.069214 
	C116.858536,267.539673 120.377113,255.322998 133.309769,249.737839 
	C136.492920,248.363144 139.969498,247.673248 143.172302,246.335938 
	C144.333618,245.851013 145.089157,244.394302 146.029831,243.380997 
	C145.068832,242.631897 144.200958,241.671967 143.119965,241.194534 
	C142.093124,240.741028 140.847336,240.679672 139.691010,240.638824 
	C127.277580,240.200424 114.865311,239.666580 102.447563,239.432449 
	C92.662430,239.247940 83.305916,241.529556 74.386818,245.485641 
	C63.673733,250.237473 55.748844,262.403534 56.783039,273.303436 
	C57.892628,284.997955 61.512028,296.007385 67.491859,306.184418 
	C77.117004,322.565430 88.841217,337.304993 101.567307,351.402740 
	C119.539200,371.311676 139.152176,389.422516 159.630966,406.649719 
	C169.659485,415.085938 180.000641,423.157104 189.855606,431.787140 
	C191.708954,433.410095 192.940033,436.981842 192.723175,439.505188 
	C191.987701,448.063690 190.447861,456.551697 189.266647,465.073761 
	C188.460815,470.887604 188.827499,471.321442 194.812119,471.335876 
	C209.475220,471.371216 224.144226,471.124725 238.797714,471.502106 
	C242.577057,471.599457 246.696533,472.917206 249.982910,474.834473 
	C257.704803,479.339508 265.194122,484.306549 272.386749,489.616058 
	C274.486908,491.166382 276.416382,494.475586 276.471924,497.021118 
	C276.842560,514.009094 276.771484,531.009155 276.647217,548.003906 
	C276.607635,553.411072 274.304840,555.368164 268.900238,555.373474 
	C252.237610,555.389954 235.574844,555.338440 218.912354,555.386658 
	C212.169571,555.406189 211.397232,556.192749 211.389053,562.859619 
	C211.361847,585.020996 211.371017,607.182373 211.403610,629.343750 
	C211.413788,636.268677 212.515762,637.326782 219.685959,637.335449 
	C239.181244,637.358887 258.678467,637.487854 278.170715,637.241943 
	C283.788177,637.171021 286.122681,638.475769 286.599426,645.593750 
	C286.917816,650.347717 286.672699,655.140442 286.651794,659.915771 
	C286.621887,666.754333 287.121765,667.317749 294.021149,667.323425 
	C323.847412,667.347778 353.673676,667.340942 384.499969,667.345032 
M484.066467,119.497543 
	C470.757080,103.045105 455.168091,89.932571 434.350525,83.737511 
	C416.902069,78.545059 399.448151,77.777267 381.864990,82.144264 
	C363.853516,86.617630 348.725037,95.905846 335.776794,109.379654 
	C317.843048,128.041397 310.524231,150.595596 309.395844,175.735413 
	C309.181641,180.507294 311.560791,182.591110 316.469452,182.623489 
	C320.465820,182.649857 324.474640,182.397385 328.456238,182.633987 
	C333.261444,182.919540 335.001129,180.283081 335.471191,176.112457 
	C335.879120,172.493164 336.178741,168.859650 336.672302,165.252396 
	C339.381042,145.454147 348.770111,129.626205 365.243195,118.260056 
	C380.165405,107.963982 396.502441,104.025734 414.755524,106.385834 
	C436.649811,109.216743 452.460938,120.659981 464.360687,138.456924 
	C471.862793,149.676849 473.874634,162.602386 475.301086,175.638397 
	C475.879272,180.922226 477.487427,182.579285 482.875397,182.631027 
	C486.372955,182.664627 489.871155,182.641006 493.369049,182.633148 
	C500.008728,182.618225 501.800385,180.920471 501.551544,174.407364 
	C500.800934,154.758392 495.638794,136.479187 484.066467,119.497543 
M171.681366,545.455933 
	C175.733154,545.008850 175.509705,541.914795 175.518326,539.089478 
	C175.557388,526.284424 175.541702,513.479187 175.534927,500.674011 
	C175.530823,492.919525 174.100693,491.411285 166.200409,491.378296 
	C153.395981,491.324799 140.588562,491.553131 127.787483,491.347260 
	C122.944786,491.269348 121.295616,493.213196 121.340149,497.843842 
	C121.476089,511.978088 121.528748,526.116882 121.295647,540.248718 
	C121.223778,544.605957 122.996124,545.592712 126.908722,545.554626 
	C141.541687,545.411865 156.176971,545.505554 171.681366,545.455933 
M574.747131,110.472809 
	C569.518127,111.299866 566.788635,114.050453 567.317749,119.644447 
	C568.579773,132.987793 569.645508,146.350098 570.969910,159.686935 
	C571.507385,165.099350 572.130371,170.557755 573.407532,175.827240 
	C574.741089,181.329590 576.883118,182.222580 583.707397,181.557541 
	C588.392395,181.100967 590.217834,177.960632 590.594421,173.791718 
	C590.817322,171.324646 590.698120,168.795441 590.449585,166.322632 
	C589.556458,157.439545 588.544800,148.568344 587.574036,139.693085 
	C586.855042,133.119965 586.276733,126.527023 585.362793,119.981010 
	C584.575500,114.342194 581.219421,111.305000 574.747131,110.472809 
M659.006592,206.749466 
	C651.952209,207.598022 644.862183,208.227112 637.854370,209.362808 
	C631.974915,210.315643 628.757324,214.548965 629.352051,219.640259 
	C629.908203,224.401474 633.193787,227.025162 639.654297,226.551117 
	C651.689819,225.667984 663.694763,224.331161 675.695312,223.025192 
	C681.941345,222.345459 688.203735,221.596725 694.359619,220.378311 
	C699.159973,219.428192 701.211060,215.725388 700.623657,210.561371 
	C700.138611,206.297150 697.158508,203.589157 692.495605,203.399628 
	C690.180237,203.305511 687.835815,203.365402 685.533264,203.617615 
	C676.982239,204.554337 668.443115,205.599884 659.006592,206.749466 
M631.382629,155.849731 
	C628.240295,159.687057 625.076416,163.506943 621.960327,167.365524 
	C616.455994,174.181488 610.915100,180.969559 605.518494,187.870224 
	C602.340515,191.933899 602.547302,199.598145 605.672607,202.129059 
	C609.101440,204.905792 616.431213,203.641235 619.994995,199.599350 
	C621.195251,198.238022 622.250305,196.748840 623.374268,195.320053 
	C633.192261,182.839523 643.102966,170.430283 652.776611,157.838898 
	C655.936157,153.726379 655.132385,148.972992 651.441711,145.813950 
	C647.501892,142.441650 642.730164,142.519958 639.000366,146.425217 
	C636.384583,149.164047 634.209412,152.323654 631.382629,155.849731 
M246.664871,509.606506 
	C246.660706,507.780701 246.549576,505.947479 246.675110,504.130615 
	C246.920746,500.575378 245.037140,498.654297 241.797012,498.565460 
	C234.335297,498.360901 226.860916,498.391571 219.397736,498.574646 
	C216.198441,498.653168 214.297043,500.266571 214.398926,503.966888 
	C214.595337,511.098877 214.519318,518.240540 214.443268,525.376953 
	C214.405350,528.936279 216.111572,530.610046 219.547958,530.626953 
	C226.851105,530.662964 234.154510,530.650574 241.457809,530.655151 
	C245.227051,530.657532 246.779343,528.742188 246.676926,525.018921 
	C246.544617,520.209106 246.655426,515.392639 246.664871,509.606506 
M169.567062,585.857544 
	C169.027649,585.484741 168.493881,584.796265 167.947983,584.786621 
	C159.983429,584.644470 152.000763,584.304077 144.064987,584.756958 
	C142.421860,584.850708 139.739380,587.889587 139.613815,589.714172 
	C139.101547,597.158508 139.022568,604.689880 139.650513,612.115906 
	C139.810989,614.013916 143.073639,617.039001 145.040619,617.145142 
	C152.127502,617.527588 159.268188,616.816650 166.391647,616.655701 
	C170.248367,616.568481 171.645905,614.624084 171.584076,610.968262 
	C171.482895,604.986267 171.687454,598.997192 171.499344,593.019470 
	C171.429916,590.813110 170.614441,588.630127 169.567062,585.857544 
M242.435974,693.572083 
	C245.097321,693.549561 247.788223,693.768494 250.413025,693.447327 
	C254.246048,692.978455 256.837799,691.233643 256.692566,686.686340 
	C256.490906,680.371948 256.690308,674.045776 256.635010,667.725342 
	C256.602844,664.050110 254.760803,661.554688 251.016190,661.439270 
	C244.037186,661.223938 237.042664,661.246338 230.062531,661.446655 
	C226.626633,661.545227 224.552338,663.576904 224.527222,667.208984 
	C224.480057,674.028870 224.434357,680.849304 224.479507,687.668945 
	C224.505264,691.558777 226.767303,693.380493 230.486328,693.482300 
	C234.143494,693.582458 237.804398,693.545959 242.435974,693.572083 
z"/>
<path fill="#F87811" opacity="1.000000" stroke="none" 
	d="
M615.346069,392.465271 
	C618.633057,414.389526 621.686829,435.899811 625.244934,457.326355 
	C627.900330,473.316498 631.070312,489.225891 634.262024,505.120850 
	C637.526184,521.377014 641.071350,537.577087 644.556519,553.788208 
	C645.147034,556.534668 645.986023,559.234741 646.832031,561.917847 
	C648.452942,567.058594 646.253174,570.198914 641.138794,569.107361 
	C628.667236,566.445496 616.181213,563.741760 603.892883,560.358215 
	C588.428650,556.100159 573.024048,551.535095 557.841187,546.374329 
	C545.601318,542.213806 533.638062,537.187866 521.715515,532.158325 
	C505.261566,525.217102 488.802002,518.251099 472.639526,510.667664 
	C455.965820,502.844269 439.615784,494.326324 423.182037,485.998077 
	C414.311035,481.502472 405.447876,476.969208 396.782928,472.094299 
	C383.788055,464.783386 370.836670,457.376648 358.109497,449.612823 
	C339.576843,438.307526 320.870117,427.219818 302.951660,414.992950 
	C281.474030,400.337402 260.586700,384.796021 239.761917,369.213043 
	C229.020660,361.175507 218.989105,352.191833 208.591782,343.690796 
	C205.865601,341.461853 204.504654,338.984802 204.558197,335.216492 
	C204.955658,307.249695 204.904678,279.275513 205.431381,251.311890 
	C205.768570,233.410583 213.125092,218.910461 229.484619,210.641785 
	C235.514801,207.593903 242.818451,205.636276 249.548523,205.616211 
	C355.186035,205.301300 460.825439,205.179947 566.462708,205.528412 
	C591.138550,205.609802 609.988525,225.407990 609.436218,248.677704 
	C608.934204,269.826630 608.958496,291.006653 609.482178,312.154877 
	C609.838257,326.537628 611.439697,340.890289 612.513977,355.254211 
	C613.430481,367.509583 614.389282,379.761749 615.346069,392.465271 
M452.982666,261.517456 
	C450.061737,258.550171 447.047302,255.668167 444.244049,252.593582 
	C440.915527,248.942871 436.688873,247.945435 432.452240,249.623352 
	C428.155090,251.325211 427.038574,255.402649 427.001709,259.961395 
	C426.880554,274.950592 426.504913,289.937531 426.259644,304.925903 
	C425.826263,331.406311 425.448669,357.887695 424.963470,384.367126 
	C424.889954,388.380829 425.993439,391.739471 429.609100,393.612305 
	C433.347229,395.548553 437.043030,394.857605 440.361969,392.266937 
	C441.149506,391.652191 442.012665,391.117767 442.727142,390.428375 
	C461.901489,371.926086 481.244141,353.592682 500.142181,334.811981 
	C509.009033,326.000183 508.567169,319.191437 499.929962,310.214844 
	C484.460114,294.137085 468.959229,278.089203 452.982666,261.517456 
M488.895477,357.505005 
	C485.942352,359.623779 484.925049,362.406769 485.054443,366.096252 
	C485.287567,372.743073 484.765686,379.418823 485.067719,386.059387 
	C485.179260,388.511597 486.176880,391.357178 487.732605,393.219574 
	C490.956818,397.079437 497.486084,396.397308 502.433716,391.669678 
	C521.804749,373.159790 541.162903,354.633118 560.281494,335.863739 
	C568.778748,327.521667 568.502808,320.196045 560.269104,311.621277 
	C548.857422,299.736847 537.455872,287.842560 526.009338,275.991699 
	C518.725037,268.450043 511.352905,260.993286 504.048309,253.471085 
	C500.657715,249.979477 496.516449,249.019867 492.181061,250.757599 
	C487.931610,252.460876 486.968384,256.382263 486.989838,260.677032 
	C487.021393,267.001221 486.534576,273.349213 486.958557,279.640564 
	C487.151093,282.497162 488.358154,285.800507 490.216553,287.932068 
	C495.565674,294.067474 501.488770,299.701721 507.172363,305.546509 
	C517.614258,316.284637 517.725342,328.881714 507.277374,339.560883 
	C501.460266,345.506622 495.374390,351.189392 488.895477,357.505005 
z"/>
<path fill="#F77811" opacity="1.000000" stroke="none" 
	d="
M383.999939,667.345215 
	C353.673676,667.340942 323.847412,667.347778 294.021149,667.323425 
	C287.121765,667.317749 286.621887,666.754333 286.651794,659.915771 
	C286.672699,655.140442 286.917816,650.347717 286.599426,645.593750 
	C286.122681,638.475769 283.788177,637.171021 278.170715,637.241943 
	C258.678467,637.487854 239.181244,637.358887 219.685959,637.335449 
	C212.515762,637.326782 211.413788,636.268677 211.403610,629.343750 
	C211.371017,607.182373 211.361847,585.020996 211.389053,562.859619 
	C211.397232,556.192749 212.169571,555.406189 218.912354,555.386658 
	C235.574844,555.338440 252.237610,555.389954 268.900238,555.373474 
	C274.304840,555.368164 276.607635,553.411072 276.647217,548.003906 
	C276.771484,531.009155 276.842560,514.009094 276.471924,497.021118 
	C276.416382,494.475586 274.486908,491.166382 272.386749,489.616058 
	C265.194122,484.306549 257.704803,479.339508 249.982910,474.834473 
	C246.696533,472.917206 242.577057,471.599457 238.797714,471.502106 
	C224.144226,471.124725 209.475220,471.371216 194.812119,471.335876 
	C188.827499,471.321442 188.460815,470.887604 189.266647,465.073761 
	C190.447861,456.551697 191.987701,448.063690 192.723175,439.505188 
	C192.940033,436.981842 191.708954,433.410095 189.855606,431.787140 
	C180.000641,423.157104 169.659485,415.085938 159.630966,406.649719 
	C139.152176,389.422516 119.539200,371.311676 101.567307,351.402740 
	C88.841217,337.304993 77.117004,322.565430 67.491859,306.184418 
	C61.512028,296.007385 57.892628,284.997955 56.783039,273.303436 
	C55.748844,262.403534 63.673733,250.237473 74.386818,245.485641 
	C83.305916,241.529556 92.662430,239.247940 102.447563,239.432449 
	C114.865311,239.666580 127.277580,240.200424 139.691010,240.638824 
	C140.847336,240.679672 142.093124,240.741028 143.119965,241.194534 
	C144.200958,241.671967 145.068832,242.631897 146.029831,243.380997 
	C145.089157,244.394302 144.333618,245.851013 143.172302,246.335938 
	C139.969498,247.673248 136.492920,248.363144 133.309769,249.737839 
	C120.377113,255.322998 116.858536,267.539673 120.470970,280.069214 
	C124.349876,293.522980 131.573486,305.595642 140.841187,315.775940 
	C157.215439,333.762604 173.749252,351.827576 192.004120,367.818848 
	C212.283081,385.583313 234.161057,401.622803 256.088806,417.374908 
	C275.731659,431.485596 296.110229,444.633331 316.671692,457.387817 
	C339.489380,471.541901 362.561981,485.354248 386.113861,498.236206 
	C410.096527,511.353821 434.643921,523.473938 459.234894,535.432678 
	C477.141022,544.140442 495.192352,552.732300 513.767395,559.837463 
	C539.333130,569.616638 565.362793,578.222351 591.378967,586.766663 
	C603.015625,590.588440 615.012695,593.462280 627.006714,596.010803 
	C644.323242,599.690186 662.024719,600.723877 679.563904,599.030334 
	C690.513123,597.973083 701.735291,594.332520 705.711914,582.209045 
	C707.404114,577.050293 706.210632,570.926453 706.185181,565.241821 
	C706.181091,564.330017 705.060059,563.411072 705.085999,562.513672 
	C705.149109,560.332092 705.583008,558.161316 705.867615,555.986145 
	C707.516724,557.020508 709.570496,557.718811 710.751892,559.141541 
	C721.734436,572.368042 731.455994,586.480713 737.495789,602.665955 
	C740.794373,611.505432 743.346741,620.825989 740.340332,630.418945 
	C735.984985,644.316162 724.956055,650.302185 711.899109,653.232605 
	C694.968140,657.032410 677.701233,656.247131 660.750549,654.170044 
	C652.831787,653.199707 647.533325,655.228699 641.744141,659.668152 
	C632.559143,666.711792 621.525208,667.370239 610.446472,667.368042 
	C535.130981,667.353149 459.815460,667.351196 383.999939,667.345215 
M235.329025,583.776672 
	C235.328262,592.770020 235.232788,601.764771 235.362411,610.756287 
	C235.439682,616.115173 237.032669,617.584473 242.232117,617.604736 
	C252.391251,617.644470 262.550720,617.653198 272.709869,617.620544 
	C278.282684,617.602600 279.606842,616.330627 279.625946,610.970947 
	C279.660400,601.311646 279.652435,591.651855 279.607513,581.992554 
	C279.581573,576.420105 278.488770,575.333496 272.849915,575.313232 
	C262.857361,575.277283 252.864487,575.301147 242.871811,575.325195 
	C236.433273,575.340698 235.412415,576.381226 235.329025,583.776672 
M374.681152,635.072937 
	C374.689697,630.574280 374.857086,626.068665 374.662109,621.578857 
	C374.467560,617.098145 372.014801,614.483948 367.391876,614.406067 
	C362.394592,614.321838 357.393127,614.333862 352.396057,614.433044 
	C347.999939,614.520264 345.538025,617.039734 345.350586,621.271973 
	C345.115021,626.591370 345.102905,631.947998 345.457581,637.257629 
	C345.734436,641.402588 347.959229,643.920044 352.641357,643.689148 
	C357.129944,643.467834 361.637146,643.627441 366.136169,643.612976 
	C372.670349,643.591919 373.755493,642.615845 374.681152,635.072937 
M324.633240,582.705994 
	C327.788513,582.706177 330.943787,582.714478 334.099030,582.704773 
	C339.865021,582.687012 342.326202,580.607910 342.658630,574.892212 
	C342.918518,570.423645 342.867615,565.920471 342.662933,561.446045 
	C342.448090,556.748413 339.754639,554.396851 334.987152,554.369202 
	C329.839294,554.339417 324.688690,554.465637 319.543823,554.338501 
	C315.068176,554.227966 313.199585,556.369568 313.284393,560.689636 
	C313.359344,564.507507 313.280640,568.328247 313.281830,572.147766 
	C313.284882,581.768311 314.176544,582.669983 324.633240,582.705994 
z"/>
<path fill="#F67A15" opacity="1.000000" stroke="none" 
	d="
M484.237793,119.812920 
	C495.638794,136.479187 500.800934,154.758392 501.551544,174.407364 
	C501.800385,180.920471 500.008728,182.618225 493.369049,182.633148 
	C489.871155,182.641006 486.372955,182.664627 482.875397,182.631027 
	C477.487427,182.579285 475.879272,180.922226 475.301086,175.638397 
	C473.874634,162.602386 471.862793,149.676849 464.360687,138.456924 
	C452.460938,120.659981 436.649811,109.216743 414.755524,106.385834 
	C396.502441,104.025734 380.165405,107.963982 365.243195,118.260056 
	C348.770111,129.626205 339.381042,145.454147 336.672302,165.252396 
	C336.178741,168.859650 335.879120,172.493164 335.471191,176.112457 
	C335.001129,180.283081 333.261444,182.919540 328.456238,182.633987 
	C324.474640,182.397385 320.465820,182.649857 316.469452,182.623489 
	C311.560791,182.591110 309.181641,180.507294 309.395844,175.735413 
	C310.524231,150.595596 317.843048,128.041397 335.776794,109.379654 
	C348.725037,95.905846 363.853516,86.617630 381.864990,82.144264 
	C399.448151,77.777267 416.902069,78.545059 434.350525,83.737511 
	C455.168091,89.932571 470.757080,103.045105 484.237793,119.812920 
z"/>
<path fill="#F77A15" opacity="1.000000" stroke="none" 
	d="
M171.246368,545.483276 
	C156.176971,545.505554 141.541687,545.411865 126.908722,545.554626 
	C122.996124,545.592712 121.223778,544.605957 121.295647,540.248718 
	C121.528748,526.116882 121.476089,511.978088 121.340149,497.843842 
	C121.295616,493.213196 122.944786,491.269348 127.787483,491.347260 
	C140.588562,491.553131 153.395981,491.324799 166.200409,491.378296 
	C174.100693,491.411285 175.530823,492.919525 175.534927,500.674011 
	C175.541702,513.479187 175.557388,526.284424 175.518326,539.089478 
	C175.509705,541.914795 175.733154,545.008850 171.246368,545.483276 
z"/>
<path fill="#F57B19" opacity="1.000000" stroke="none" 
	d="
M575.125244,110.465477 
	C581.219421,111.305000 584.575500,114.342194 585.362793,119.981010 
	C586.276733,126.527023 586.855042,133.119965 587.574036,139.693085 
	C588.544800,148.568344 589.556458,157.439545 590.449585,166.322632 
	C590.698120,168.795441 590.817322,171.324646 590.594421,173.791718 
	C590.217834,177.960632 588.392395,181.100967 583.707397,181.557541 
	C576.883118,182.222580 574.741089,181.329590 573.407532,175.827240 
	C572.130371,170.557755 571.507385,165.099350 570.969910,159.686935 
	C569.645508,146.350098 568.579773,132.987793 567.317749,119.644447 
	C566.788635,114.050453 569.518127,111.299866 575.125244,110.465477 
z"/>
<path fill="#F57B19" opacity="1.000000" stroke="none" 
	d="
M659.453064,206.677017 
	C668.443115,205.599884 676.982239,204.554337 685.533264,203.617615 
	C687.835815,203.365402 690.180237,203.305511 692.495605,203.399628 
	C697.158508,203.589157 700.138611,206.297150 700.623657,210.561371 
	C701.211060,215.725388 699.159973,219.428192 694.359619,220.378311 
	C688.203735,221.596725 681.941345,222.345459 675.695312,223.025192 
	C663.694763,224.331161 651.689819,225.667984 639.654297,226.551117 
	C633.193787,227.025162 629.908203,224.401474 629.352051,219.640259 
	C628.757324,214.548965 631.974915,210.315643 637.854370,209.362808 
	C644.862183,208.227112 651.952209,207.598022 659.453064,206.677017 
z"/>
<path fill="#F47A16" opacity="1.000000" stroke="none" 
	d="
M631.609985,155.572540 
	C634.209412,152.323654 636.384583,149.164047 639.000366,146.425217 
	C642.730164,142.519958 647.501892,142.441650 651.441711,145.813950 
	C655.132385,148.972992 655.936157,153.726379 652.776611,157.838898 
	C643.102966,170.430283 633.192261,182.839523 623.374268,195.320053 
	C622.250305,196.748840 621.195251,198.238022 619.994995,199.599350 
	C616.431213,203.641235 609.101440,204.905792 605.672607,202.129059 
	C602.547302,199.598145 602.340515,191.933899 605.518494,187.870224 
	C610.915100,180.969559 616.455994,174.181488 621.960327,167.365524 
	C625.076416,163.506943 628.240295,159.687057 631.609985,155.572540 
z"/>
<path fill="#F67C19" opacity="1.000000" stroke="none" 
	d="
M246.663208,510.092773 
	C246.655426,515.392639 246.544617,520.209106 246.676926,525.018921 
	C246.779343,528.742188 245.227051,530.657532 241.457809,530.655151 
	C234.154510,530.650574 226.851105,530.662964 219.547958,530.626953 
	C216.111572,530.610046 214.405350,528.936279 214.443268,525.376953 
	C214.519318,518.240540 214.595337,511.098877 214.398926,503.966888 
	C214.297043,500.266571 216.198441,498.653168 219.397736,498.574646 
	C226.860916,498.391571 234.335297,498.360901 241.797012,498.565460 
	C245.037140,498.654297 246.920746,500.575378 246.675110,504.130615 
	C246.549576,505.947479 246.660706,507.780701 246.663208,510.092773 
z"/>
<path fill="#F67B18" opacity="1.000000" stroke="none" 
	d="
M169.853149,586.147034 
	C170.614441,588.630127 171.429916,590.813110 171.499344,593.019470 
	C171.687454,598.997192 171.482895,604.986267 171.584076,610.968262 
	C171.645905,614.624084 170.248367,616.568481 166.391647,616.655701 
	C159.268188,616.816650 152.127502,617.527588 145.040619,617.145142 
	C143.073639,617.039001 139.810989,614.013916 139.650513,612.115906 
	C139.022568,604.689880 139.101547,597.158508 139.613815,589.714172 
	C139.739380,587.889587 142.421860,584.850708 144.064987,584.756958 
	C152.000763,584.304077 159.983429,584.644470 167.947983,584.786621 
	C168.493881,584.796265 169.027649,585.484741 169.853149,586.147034 
z"/>
<path fill="#F67B18" opacity="1.000000" stroke="none" 
	d="
M241.949829,693.570801 
	C237.804398,693.545959 234.143494,693.582458 230.486328,693.482300 
	C226.767303,693.380493 224.505264,691.558777 224.479507,687.668945 
	C224.434357,680.849304 224.480057,674.028870 224.527222,667.208984 
	C224.552338,663.576904 226.626633,661.545227 230.062531,661.446655 
	C237.042664,661.246338 244.037186,661.223938 251.016190,661.439270 
	C254.760803,661.554688 256.602844,664.050110 256.635010,667.725342 
	C256.690308,674.045776 256.490906,680.371948 256.692566,686.686340 
	C256.837799,691.233643 254.246048,692.978455 250.413025,693.447327 
	C247.788223,693.768494 245.097321,693.549561 241.949829,693.570801 
z"/>
<path fill="#FFFDFB" opacity="1.000000" stroke="none" 
	d="
M453.226990,261.773163 
	C468.959229,278.089203 484.460114,294.137085 499.929962,310.214844 
	C508.567169,319.191437 509.009033,326.000183 500.142181,334.811981 
	C481.244141,353.592682 461.901489,371.926086 442.727142,390.428375 
	C442.012665,391.117767 441.149506,391.652191 440.361969,392.266937 
	C437.043030,394.857605 433.347229,395.548553 429.609100,393.612305 
	C425.993439,391.739471 424.889954,388.380829 424.963470,384.367126 
	C425.448669,357.887695 425.826263,331.406311 426.259644,304.925903 
	C426.504913,289.937531 426.880554,274.950592 427.001709,259.961395 
	C427.038574,255.402649 428.155090,251.325211 432.452240,249.623352 
	C436.688873,247.945435 440.915527,248.942871 444.244049,252.593582 
	C447.047302,255.668167 450.061737,258.550171 453.226990,261.773163 
z"/>
<path fill="#FEFCF9" opacity="1.000000" stroke="none" 
	d="
M489.152588,357.247864 
	C495.374390,351.189392 501.460266,345.506622 507.277374,339.560883 
	C517.725342,328.881714 517.614258,316.284637 507.172363,305.546509 
	C501.488770,299.701721 495.565674,294.067474 490.216553,287.932068 
	C488.358154,285.800507 487.151093,282.497162 486.958557,279.640564 
	C486.534576,273.349213 487.021393,267.001221 486.989838,260.677032 
	C486.968384,256.382263 487.931610,252.460876 492.181061,250.757599 
	C496.516449,249.019867 500.657715,249.979477 504.048309,253.471085 
	C511.352905,260.993286 518.725037,268.450043 526.009338,275.991699 
	C537.455872,287.842560 548.857422,299.736847 560.269104,311.621277 
	C568.502808,320.196045 568.778748,327.521667 560.281494,335.863739 
	C541.162903,354.633118 521.804749,373.159790 502.433716,391.669678 
	C497.486084,396.397308 490.956818,397.079437 487.732605,393.219574 
	C486.176880,391.357178 485.179260,388.511597 485.067719,386.059387 
	C484.765686,379.418823 485.287567,372.743073 485.054443,366.096252 
	C484.925049,362.406769 485.942352,359.623779 489.152588,357.247864 
z"/>
<path fill="#FEFBF7" opacity="1.000000" stroke="none" 
	d="
M235.330353,583.316711 
	C235.412415,576.381226 236.433273,575.340698 242.871811,575.325195 
	C252.864487,575.301147 262.857361,575.277283 272.849915,575.313232 
	C278.488770,575.333496 279.581573,576.420105 279.607513,581.992554 
	C279.652435,591.651855 279.660400,601.311646 279.625946,610.970947 
	C279.606842,616.330627 278.282684,617.602600 272.709869,617.620544 
	C262.550720,617.653198 252.391251,617.644470 242.232117,617.604736 
	C237.032669,617.584473 235.439682,616.115173 235.362411,610.756287 
	C235.232788,601.764771 235.328262,592.770020 235.330353,583.316711 
z"/>
<path fill="#FEFAF4" opacity="1.000000" stroke="none" 
	d="
M374.673126,635.517700 
	C373.755493,642.615845 372.670349,643.591919 366.136169,643.612976 
	C361.637146,643.627441 357.129944,643.467834 352.641357,643.689148 
	C347.959229,643.920044 345.734436,641.402588 345.457581,637.257629 
	C345.102905,631.947998 345.115021,626.591370 345.350586,621.271973 
	C345.538025,617.039734 347.999939,614.520264 352.396057,614.433044 
	C357.393127,614.333862 362.394592,614.321838 367.391876,614.406067 
	C372.014801,614.483948 374.467560,617.098145 374.662109,621.578857 
	C374.857086,626.068665 374.689697,630.574280 374.673126,635.517700 
z"/>
<path fill="#FEF8F1" opacity="1.000000" stroke="none" 
	d="
M324.160889,582.705566 
	C314.176544,582.669983 313.284882,581.768311 313.281830,572.147766 
	C313.280640,568.328247 313.359344,564.507507 313.284393,560.689636 
	C313.199585,556.369568 315.068176,554.227966 319.543823,554.338501 
	C324.688690,554.465637 329.839294,554.339417 334.987152,554.369202 
	C339.754639,554.396851 342.448090,556.748413 342.662933,561.446045 
	C342.867615,565.920471 342.918518,570.423645 342.658630,574.892212 
	C342.326202,580.607910 339.865021,582.687012 334.099030,582.704773 
	C330.943787,582.714478 327.788513,582.706177 324.160889,582.705566 
z"/>
</svg>